<svg xmlns="http://www.w3.org/2000/svg" data-name="Camada 1" viewBox="0 0 755.35 118"><defs><linearGradient id="a" x1="167.88" x2="130.57" y1="-.56" y2="61" gradientUnits="userSpaceOnUse"><stop offset="0" stop-color="#118ab2"/><stop offset=".21" stop-color="#2e9ec3"/><stop offset=".56" stop-color="#58badb"/><stop offset=".84" stop-color="#72cbe9"/><stop offset="1" stop-color="#7cd2ef"/></linearGradient><linearGradient id="b" x1="91.1" x2="119.79" y1="33.41" y2="78.28" gradientUnits="userSpaceOnUse"><stop offset="0" stop-color="#b6325f"/><stop offset=".19" stop-color="#be3c62"/><stop offset=".52" stop-color="#d4566b"/><stop offset=".93" stop-color="#f88079"/><stop offset="1" stop-color="#ff887c"/></linearGradient><linearGradient id="c" x1="119.78" x2="88.48" y1="71.43" y2="123.08" gradientUnits="userSpaceOnUse"><stop offset="0" stop-color="#ffd166"/><stop offset=".1" stop-color="#f9c95a"/><stop offset=".5" stop-color="#e5af30"/><stop offset=".81" stop-color="#d99e16"/><stop offset="1" stop-color="#d4980c"/></linearGradient><linearGradient id="d" x1="128.55" x2="153.68" y1="85.88" y2="125.19" gradientUnits="userSpaceOnUse"><stop offset="0" stop-color="#06d6a0"/><stop offset=".31" stop-color="#0acc9a"/><stop offset=".82" stop-color="#15b28a"/><stop offset="1" stop-color="#19a883"/></linearGradient></defs><path fill="#fffeff" d="M175.19 55.59h-10.68V38.68h11.72l2.52-19.13h18.69v19.13h17.2v16.91h-17.2v32.18c0 6.37 3.85 10.68 10.08 10.68a31.68 31.68 0 0 0 7.86-1.19v17.94a53.57 53.57 0 0 1-15.27 2.38c-15.13 0-24.92-11.42-24.92-27.59Zm85.57-19.88c24.32 0 40.93 16.61 40.93 40.64a49.08 49.08 0 0 1-.31 6.65l-59.47-.15c1.93 10.68 9.19 17.65 19.28 17.65 8.3 0 15.27-4.74 17.64-11.42l20 2.82c-3.71 14.83-19.73 25.66-38.27 25.66-24.47 0-41.67-17.06-41.67-41.53.05-23.71 17.4-40.32 41.87-40.32Zm18.39 33.82c-1.33-9.64-8.75-16.76-18.83-16.76-9.79 0-16.61 6.67-18.54 16.76Zm51.17-30.85v10.23a28.77 28.77 0 0 1 24.17-13.2c17.05 0 28.62 13.2 28.62 31.44v47.46h-22.24V71c0-9.19-5.34-15.72-14.09-15.72s-15.87 7-15.87 16.61v42.71h-22.24V38.68Zm94.32 79.19c-20.47 0-35.3-12-35.15-28.62h18.83c0 7.56 7 12.9 16.61 12.9 8.16 0 14.09-3.85 14.09-8.9 0-6.37-8.6-8.15-17.79-9-16.91-2.08-31-4.75-31-23.28 0-14.83 14.09-25.51 32.63-25.51 20.31 0 35 11 35 26.25h-19.58c0-6.23-6.67-10.53-15.57-10.53-6.82 0-12.31 3.56-12.46 8.6s6.68 6.52 15.28 7.86c15.42 2.08 34.85 5.19 34.85 23 0 15.81-14.54 27.23-35.74 27.23ZM467.2 16c0-7.27 5.34-12.46 12.9-12.46S493.01 8.72 493.01 16s-5.34 12.6-12.91 12.6-12.9-5.19-12.9-12.6Zm24 22.69v75.93h-22.22V38.68Zm93.01 37.96c0 24.17-17.2 40.93-42.27 40.93-24.91 0-42.11-16.76-42.11-40.93 0-24.33 17.2-40.94 42.11-40.94 25.07 0 42.27 16.61 42.27 40.94Zm-22.39 0c0-12.46-8.16-21.36-19.88-21.36-11.56 0-19.72 8.9-19.72 21.36S530.38 98 541.94 98c11.72 0 19.88-8.9 19.88-21.35Zm50.86-37.97v10.23a28.79 28.79 0 0 1 24.18-13.2c17 0 28.62 13.2 28.62 31.44v47.46h-22.25V71c0-9.19-5.34-15.72-14.09-15.72s-15.86 7-15.86 16.61v42.71h-22.25V38.68Zm120.42 0h22.28v75.93H733.1v-10.53a30.79 30.79 0 0 1-25.8 13.5c-21.35 0-36.33-16.91-36.33-40.93s15-40.94 36.33-40.94a30.79 30.79 0 0 1 25.8 13.5Zm-.14 38c0-12.31-8.31-21.36-19.88-21.36s-19.87 9-19.87 21.36S701.52 98 713.08 98s19.88-9 19.88-21.35ZM41.82 35.71c24.32 0 40.94 16.61 40.94 40.64a47.46 47.46 0 0 1-.3 6.67l-59.47-.15c1.93 10.68 9.19 17.65 19.28 17.65 8.3 0 15.27-4.74 17.65-11.42l20 2.82c-3.71 14.83-19.73 25.66-38.26 25.66-24.47 0-41.68-17.06-41.68-41.53.02-23.73 17.4-40.34 41.84-40.34Zm18.39 33.82c-1.33-9.64-8.75-16.76-18.83-16.76-9.79 0-16.61 6.67-18.54 16.76Z"/><path fill="url(#a)" d="m123.09 49.34 13.94 20.39L182.09 0h-28.97l-30.03 49.34z"/><path fill="url(#b)" d="M106.57 35.4H77.38l28.18 39.69h27.18L106.57 35.4z"/><path fill="url(#c)" d="M76.38 118h28.18l28.18-42.91h-27.18L76.38 118z"/><path fill="url(#d)" d="M164.92 118h-31.11l-11.43-17 14.65-20.55L164.92 118z"/></svg>