<svg id="Camada_1" data-name="Camada 1" xmlns="http://www.w3.org/2000/svg" xmlns:xlink="http://www.w3.org/1999/xlink" viewBox="0 0 755 162.99"><defs><linearGradient id="Gradiente_sem_nome_35" x1="167.79" y1="-0.56" x2="130.51" y2="60.97" gradientUnits="userSpaceOnUse"><stop offset="0" stop-color="#118ab2"/><stop offset="0.21" stop-color="#2e9ec3"/><stop offset="0.56" stop-color="#58badb"/><stop offset="0.84" stop-color="#72cbe9"/><stop offset="1" stop-color="#7cd2ef"/></linearGradient><linearGradient id="Nova_amostra_de_gradiente_2" x1="91.05" y1="33.39" x2="119.73" y2="78.24" gradientUnits="userSpaceOnUse"><stop offset="0" stop-color="#b6325f"/><stop offset="0.19" stop-color="#be3c62"/><stop offset="0.52" stop-color="#d4566b"/><stop offset="0.93" stop-color="#f88079"/><stop offset="1" stop-color="#ff887c"/></linearGradient><linearGradient id="Nova_amostra_de_gradiente_1" x1="119.72" y1="71.39" x2="88.43" y2="123.02" gradientUnits="userSpaceOnUse"><stop offset="0" stop-color="#ffd166"/><stop offset="0.1" stop-color="#f9c95a"/><stop offset="0.5" stop-color="#e5af30"/><stop offset="0.81" stop-color="#d99e16"/><stop offset="1" stop-color="#d4980c"/></linearGradient><linearGradient id="Nova_amostra_de_gradiente_3" x1="128.48" y1="85.84" x2="153.61" y2="125.13" gradientUnits="userSpaceOnUse"><stop offset="0" stop-color="#06d6a0"/><stop offset="0.31" stop-color="#0acc9a"/><stop offset="0.82" stop-color="#15b28a"/><stop offset="1" stop-color="#19a883"/></linearGradient></defs><g id="Logo"><path d="M204.1,74.59H193.43V57.69h11.71l2.52-19.12h18.68V57.69h17.19v16.9H226.34v32.16c0,6.38,3.85,10.68,10.07,10.68a31.68,31.68,0,0,0,7.86-1.19v17.94A53.81,53.81,0,0,1,229,136.55c-15.12,0-24.9-11.42-24.9-27.57Z" transform="translate(-29 -19.03)" fill="#fffeff"/><path d="M289.63,54.73c24.31,0,40.91,16.6,40.91,40.61a47.46,47.46,0,0,1-.3,6.67l-59.44-.15c1.93,10.67,9.19,17.64,19.27,17.64,8.3,0,15.27-4.74,17.64-11.41l20,2.81c-3.7,14.83-19.71,25.65-38.24,25.65-24.46,0-41.65-17.05-41.65-41.51C247.83,71.33,265.17,54.73,289.63,54.73ZM308,88.52c-1.34-9.63-8.75-16.75-18.83-16.75-9.78,0-16.6,6.67-18.52,16.75Z" transform="translate(-29 -19.03)" fill="#fffeff"/><path d="M359.15,57.69V67.92a28.76,28.76,0,0,1,24.16-13.19c17.05,0,28.61,13.19,28.61,31.42v47.43H389.68V90c0-9.19-5.33-15.71-14.08-15.71s-15.86,7-15.86,16.6v42.69H337.51V57.69Z" transform="translate(-29 -19.03)" fill="#fffeff"/><path d="M453.42,136.84c-20.45,0-35.28-12-35.13-28.6h18.83c0,7.56,7,12.89,16.6,12.89,8.15,0,14.08-3.85,14.08-8.89,0-6.38-8.6-8.15-17.79-9-16.89-2.08-31-4.75-31-23.28,0-14.82,14.09-25.49,32.61-25.49,20.31,0,35,11,35,26.24H467.06c0-6.23-6.67-10.53-15.56-10.53-6.82,0-12.31,3.56-12.45,8.6s6.66,6.52,15.26,7.86c15.42,2.07,34.84,5.18,34.84,23C489.15,125.43,474.62,136.84,453.42,136.84Z" transform="translate(-29 -19.03)" fill="#fffeff"/><path d="M496,35c0-7.26,5.33-12.45,12.89-12.45s12.9,5.19,12.9,12.45c0,7.41-5.34,12.6-12.9,12.6S496,42.42,496,35Zm24,22.68v75.89H497.74V57.69Z" transform="translate(-29 -19.03)" fill="#fffeff"/><path d="M612.91,95.64c0,24.16-17.19,40.91-42.24,40.91-24.9,0-42.1-16.75-42.1-40.91,0-24.31,17.2-40.91,42.1-40.91C595.72,54.73,612.91,71.33,612.91,95.64Zm-22.38,0c0-12.45-8.15-21.35-19.86-21.35-11.56,0-19.71,8.9-19.71,21.35S559.11,117,570.67,117C582.38,117,590.53,108.09,590.53,95.64Z" transform="translate(-29 -19.03)" fill="#fffeff"/><path d="M641.37,57.69V67.92a28.76,28.76,0,0,1,24.16-13.19c17.05,0,28.61,13.19,28.61,31.42v47.43H671.91V90c0-9.19-5.34-15.71-14.08-15.71S642,81.26,642,90.89v42.69H619.73V57.69Z" transform="translate(-29 -19.03)" fill="#fffeff"/><path d="M761.74,57.69H784v75.89H761.74V123.06a30.79,30.79,0,0,1-25.8,13.49c-21.34,0-36.31-16.9-36.31-40.91s15-40.91,36.31-40.91a30.81,30.81,0,0,1,25.8,13.48Zm-.15,38c0-12.31-8.3-21.35-19.86-21.35s-19.87,9-19.87,21.35S730.16,117,741.73,117,761.59,107.94,761.59,95.64Z" transform="translate(-29 -19.03)" fill="#fffeff"/><path d="M70.8,54.73c24.31,0,40.91,16.6,40.91,40.61a47.46,47.46,0,0,1-.3,6.67L52,101.86c1.93,10.67,9.2,17.64,19.27,17.64,8.31,0,15.27-4.74,17.64-11.41l20,2.81c-3.7,14.83-19.71,25.65-38.24,25.65C46.19,136.55,29,119.5,29,95,29,71.33,46.34,54.73,70.8,54.73ZM89.18,88.52c-1.33-9.63-8.75-16.75-18.82-16.75-9.79,0-16.61,6.67-18.53,16.75Z" transform="translate(-29 -19.03)" fill="#fffeff"/><g id="X"><polygon points="123.03 49.32 136.96 69.69 182 0 153.05 0 123.03 49.32" fill="url(#Gradiente_sem_nome_35)"/><polygon points="106.52 35.38 77.34 35.38 105.51 75.05 132.67 75.05 106.52 35.38" fill="url(#Nova_amostra_de_gradiente_2)"/><polygon points="76.34 117.94 104.51 117.94 132.67 75.05 105.51 75.05 76.34 117.94" fill="url(#Nova_amostra_de_gradiente_1)"/><polygon points="164.84 117.94 133.75 117.94 122.32 100.95 136.96 80.41 164.84 117.94" fill="url(#Nova_amostra_de_gradiente_3)"/></g></g><path d="M29,176.82V155.54H42.34v2.76H32.21v6.49h9.44v2.75H32.21v6.52H42.47v2.76Z" transform="translate(-29 -19.03)" fill="#9a9e9e"/><path d="M69.68,155.54v21.28h-3L55.91,161.21h-.2v15.61H52.5V155.54h3L66.3,171.17h.2V155.54Z" transform="translate(-29 -19.03)" fill="#9a9e9e"/><path d="M91.82,161.13a3.05,3.05,0,0,0-1.37-2.29,5.26,5.26,0,0,0-3-.82,5.77,5.77,0,0,0-2.26.41,3.51,3.51,0,0,0-1.48,1.13,2.64,2.64,0,0,0-.53,1.61,2.34,2.34,0,0,0,.36,1.31,3,3,0,0,0,1,.92,6.12,6.12,0,0,0,1.26.61,10.62,10.62,0,0,0,1.3.4l2.08.54a17.47,17.47,0,0,1,2.09.68,8.78,8.78,0,0,1,2,1.12,5.37,5.37,0,0,1,1.48,1.73,5,5,0,0,1,.57,2.46,5.65,5.65,0,0,1-.93,3.21,6.27,6.27,0,0,1-2.69,2.22,11.6,11.6,0,0,1-8.39,0,6.4,6.4,0,0,1-2.74-2.16,6.2,6.2,0,0,1-1.09-3.32h3.22a3.31,3.31,0,0,0,.76,1.92A3.86,3.86,0,0,0,85,174a6.63,6.63,0,0,0,2.27.37,6.38,6.38,0,0,0,2.43-.43,4,4,0,0,0,1.68-1.21,2.81,2.81,0,0,0,.61-1.81,2.23,2.23,0,0,0-.54-1.55,4.05,4.05,0,0,0-1.44-1,14.89,14.89,0,0,0-2-.69L85.48,167a9.66,9.66,0,0,1-4-2,4.6,4.6,0,0,1-1.49-3.57,5.33,5.33,0,0,1,1-3.21,6.63,6.63,0,0,1,2.7-2.14,9.32,9.32,0,0,1,3.85-.76,9,9,0,0,1,3.82.76,6.46,6.46,0,0,1,2.61,2.08,5.29,5.29,0,0,1,1,3Z" transform="translate(-29 -19.03)" fill="#9a9e9e"/><path d="M108.11,155.54v21.28H104.9V155.54Z" transform="translate(-29 -19.03)" fill="#9a9e9e"/><path d="M135.82,155.54v21.28h-2.95l-10.82-15.61h-.2v15.61h-3.21V155.54h3l10.83,15.63h.2V155.54Z" transform="translate(-29 -19.03)" fill="#9a9e9e"/><path d="M164.84,166.18a12.67,12.67,0,0,1-1.25,5.86,9.16,9.16,0,0,1-3.41,3.76,9.85,9.85,0,0,1-9.85,0,9.08,9.08,0,0,1-3.42-3.77,14.44,14.44,0,0,1,0-11.71,9.12,9.12,0,0,1,3.42-3.76,9.91,9.91,0,0,1,9.85,0,9.16,9.16,0,0,1,3.41,3.76A12.7,12.7,0,0,1,164.84,166.18Zm-3.18,0a10.25,10.25,0,0,0-.84-4.38,6.18,6.18,0,0,0-2.28-2.7,6.32,6.32,0,0,0-6.57,0,6.24,6.24,0,0,0-2.28,2.7,12,12,0,0,0,0,8.76,6.24,6.24,0,0,0,2.28,2.7,6.32,6.32,0,0,0,6.57,0,6.18,6.18,0,0,0,2.28-2.7A10.25,10.25,0,0,0,161.66,166.18Z" transform="translate(-29 -19.03)" fill="#9a9e9e"/><path d="M177.15,173.91l-.16,1.14a19,19,0,0,1-.52,2.6c-.25.91-.5,1.74-.76,2.52s-.47,1.39-.64,1.85h-2.2c.09-.43.21-1,.37-1.74s.32-1.55.47-2.45.27-1.82.34-2.75l.11-1.17Z" transform="translate(-29 -19.03)" fill="#9a9e9e"/><path d="M200.9,176.82V155.54h7.59a8.46,8.46,0,0,1,4.12.9,6,6,0,0,1,2.44,2.47,7.54,7.54,0,0,1,.81,3.52A7.44,7.44,0,0,1,215,166a5.89,5.89,0,0,1-2.45,2.47,8.33,8.33,0,0,1-4.11.91h-5.22v-2.72h4.93a5.11,5.11,0,0,0,2.54-.55,3.34,3.34,0,0,0,1.44-1.49,5,5,0,0,0,.46-2.15,4.88,4.88,0,0,0-.46-2.14,3.35,3.35,0,0,0-1.44-1.47,5.5,5.5,0,0,0-2.58-.53h-4v18.53Z" transform="translate(-29 -19.03)" fill="#9a9e9e"/><path d="M225.46,176.82V155.54h13.35v2.76H228.68v6.49h9.43v2.75h-9.43v6.52h10.25v2.76Z" transform="translate(-29 -19.03)" fill="#9a9e9e"/><path d="M260.57,161.13a3,3,0,0,0-1.37-2.29,5.23,5.23,0,0,0-3-.82,5.79,5.79,0,0,0-2.27.41,3.51,3.51,0,0,0-1.48,1.13,2.63,2.63,0,0,0-.52,1.61,2.42,2.42,0,0,0,.35,1.31,3,3,0,0,0,.95.92,6.12,6.12,0,0,0,1.26.61,11.18,11.18,0,0,0,1.3.4l2.08.54a16.9,16.9,0,0,1,2.09.68,8.85,8.85,0,0,1,2,1.12,5.5,5.5,0,0,1,1.48,1.73,5.11,5.11,0,0,1,.56,2.46,5.65,5.65,0,0,1-.93,3.21,6.21,6.21,0,0,1-2.69,2.22,11.6,11.6,0,0,1-8.39,0,6.4,6.4,0,0,1-2.74-2.16,6.28,6.28,0,0,1-1.09-3.32h3.23a3.24,3.24,0,0,0,.75,1.92,3.86,3.86,0,0,0,1.69,1.13,6.63,6.63,0,0,0,2.27.37,6.38,6.38,0,0,0,2.43-.43,4,4,0,0,0,1.68-1.21,2.81,2.81,0,0,0,.61-1.81,2.28,2.28,0,0,0-.53-1.55,4.19,4.19,0,0,0-1.45-1,14.44,14.44,0,0,0-2.05-.69l-2.52-.69a9.56,9.56,0,0,1-4-2,4.57,4.57,0,0,1-1.5-3.57,5.33,5.33,0,0,1,1-3.21,6.63,6.63,0,0,1,2.7-2.14,9.32,9.32,0,0,1,3.85-.76,9,9,0,0,1,3.82.76,6.33,6.33,0,0,1,2.61,2.08,5.29,5.29,0,0,1,1,3Z" transform="translate(-29 -19.03)" fill="#9a9e9e"/><path d="M292.14,166.18a12.67,12.67,0,0,1-1.25,5.86,9.16,9.16,0,0,1-3.41,3.76,9.85,9.85,0,0,1-9.85,0,9.08,9.08,0,0,1-3.42-3.77,14.44,14.44,0,0,1,0-11.71,9.12,9.12,0,0,1,3.42-3.76,9.91,9.91,0,0,1,9.85,0,9.16,9.16,0,0,1,3.41,3.76A12.7,12.7,0,0,1,292.14,166.18Zm-3.18,0a10.25,10.25,0,0,0-.84-4.38,6.18,6.18,0,0,0-2.28-2.7,6.32,6.32,0,0,0-6.57,0,6.24,6.24,0,0,0-2.28,2.7,12,12,0,0,0,0,8.76,6.24,6.24,0,0,0,2.28,2.7,6.32,6.32,0,0,0,6.57,0,6.18,6.18,0,0,0,2.28-2.7A10.25,10.25,0,0,0,289,166.18Zm-7.48,3.74h3.16l2.22,2.9,1.05,1.29,3.55,4.63h-3.29l-2.37-3.09-.81-1.12Z" transform="translate(-29 -19.03)" fill="#9a9e9e"/><path d="M315.68,155.54h3.23v14a7.21,7.21,0,0,1-4,6.66,10.59,10.59,0,0,1-8.9,0,7.3,7.3,0,0,1-2.95-2.71,7.4,7.4,0,0,1-1.05-4v-14h3.21v13.74a5.08,5.08,0,0,0,.64,2.57,4.58,4.58,0,0,0,1.81,1.76,5.81,5.81,0,0,0,2.79.64,5.88,5.88,0,0,0,2.8-.64,4.58,4.58,0,0,0,1.81-1.76,5.28,5.28,0,0,0,.62-2.57Z" transform="translate(-29 -19.03)" fill="#9a9e9e"/><path d="M332.65,155.54v21.28h-3.21V155.54Z" transform="translate(-29 -19.03)" fill="#9a9e9e"/><path d="M354.79,161.13a3.05,3.05,0,0,0-1.37-2.29,5.28,5.28,0,0,0-3-.82,5.74,5.74,0,0,0-2.26.41,3.54,3.54,0,0,0-1.49,1.13,2.63,2.63,0,0,0-.52,1.61,2.34,2.34,0,0,0,.36,1.31,3,3,0,0,0,.94.92,6.46,6.46,0,0,0,1.27.61,10.62,10.62,0,0,0,1.3.4l2.07.54a16.9,16.9,0,0,1,2.09.68,8.64,8.64,0,0,1,2,1.12,5.5,5.5,0,0,1,1.48,1.73,5,5,0,0,1,.57,2.46,5.65,5.65,0,0,1-.93,3.21,6.24,6.24,0,0,1-2.7,2.22,10.1,10.1,0,0,1-4.25.81,10.27,10.27,0,0,1-4.14-.76,6.43,6.43,0,0,1-2.73-2.16,6.2,6.2,0,0,1-1.09-3.32h3.22a3.24,3.24,0,0,0,.75,1.92A3.89,3.89,0,0,0,348,174a6.59,6.59,0,0,0,2.27.37,6.37,6.37,0,0,0,2.42-.43,4,4,0,0,0,1.68-1.21,2.82,2.82,0,0,0,.62-1.81,2.23,2.23,0,0,0-.54-1.55,4.24,4.24,0,0,0-1.44-1,14.6,14.6,0,0,0-2.06-.69l-2.51-.69a9.54,9.54,0,0,1-4.05-2,4.6,4.6,0,0,1-1.49-3.57,5.26,5.26,0,0,1,1-3.21,6.5,6.5,0,0,1,2.7-2.14,9.3,9.3,0,0,1,3.84-.76,9,9,0,0,1,3.82.76,6.43,6.43,0,0,1,2.62,2.08,5.29,5.29,0,0,1,1,3Z" transform="translate(-29 -19.03)" fill="#9a9e9e"/><path d="M369.5,176.82h-3.41l7.66-21.28h3.71l7.66,21.28h-3.41l-6-17.42h-.16Zm.57-8.33h11.06v2.7H370.07Z" transform="translate(-29 -19.03)" fill="#9a9e9e"/><path d="M397.83,173.91l-.16,1.14a17.58,17.58,0,0,1-.52,2.6c-.25.91-.5,1.74-.76,2.52s-.47,1.39-.64,1.85h-2.2c.09-.43.21-1,.37-1.74s.32-1.55.47-2.45.27-1.82.34-2.75l.11-1.17Z" transform="translate(-29 -19.03)" fill="#9a9e9e"/><path d="M421.58,176.82V155.54h13.35v2.76H424.8v6.49h9.43v2.75H424.8v6.52h10.25v2.76Z" transform="translate(-29 -19.03)" fill="#9a9e9e"/><path d="M447.32,155.54l5.09,8.32h.17l5.09-8.32h3.72l-6.63,10.64,6.67,10.64h-3.74l-5.11-8.21h-.17l-5.11,8.21h-3.74l6.78-10.64-6.74-10.64Z" transform="translate(-29 -19.03)" fill="#9a9e9e"/><path d="M469.39,158.3v-2.76h16.47v2.76h-6.64v18.52H476V158.3Z" transform="translate(-29 -19.03)" fill="#9a9e9e"/><path d="M495.34,176.82V155.54h13.35v2.76H498.55v6.49H508v2.75h-9.44v6.52h10.26v2.76Z" transform="translate(-29 -19.03)" fill="#9a9e9e"/><path d="M536,155.54v21.28h-2.95l-10.82-15.61h-.2v15.61h-3.21V155.54h3l10.83,15.63h.19V155.54Z" transform="translate(-29 -19.03)" fill="#9a9e9e"/><path d="M558.16,161.13a3.05,3.05,0,0,0-1.37-2.29,5.23,5.23,0,0,0-3-.82,5.79,5.79,0,0,0-2.27.41,3.51,3.51,0,0,0-1.48,1.13,2.64,2.64,0,0,0-.53,1.61,2.34,2.34,0,0,0,.36,1.31,3,3,0,0,0,.95.92,6.12,6.12,0,0,0,1.26.61,11.18,11.18,0,0,0,1.3.4l2.08.54a16.9,16.9,0,0,1,2.09.68,8.78,8.78,0,0,1,2,1.12,5.37,5.37,0,0,1,1.48,1.73,5,5,0,0,1,.57,2.46,5.65,5.65,0,0,1-.93,3.21,6.27,6.27,0,0,1-2.69,2.22,11.6,11.6,0,0,1-8.39,0,6.4,6.4,0,0,1-2.74-2.16,6.28,6.28,0,0,1-1.09-3.32h3.22a3.31,3.31,0,0,0,.76,1.92,3.86,3.86,0,0,0,1.69,1.13,6.63,6.63,0,0,0,2.27.37,6.38,6.38,0,0,0,2.43-.43,4,4,0,0,0,1.68-1.21,2.81,2.81,0,0,0,.61-1.81,2.28,2.28,0,0,0-.53-1.55,4.19,4.19,0,0,0-1.45-1,14.89,14.89,0,0,0-2-.69l-2.52-.69a9.56,9.56,0,0,1-4-2,4.57,4.57,0,0,1-1.5-3.57,5.33,5.33,0,0,1,1-3.21A6.63,6.63,0,0,1,550,156a9.32,9.32,0,0,1,3.85-.76,9,9,0,0,1,3.82.76,6.4,6.4,0,0,1,2.61,2.08,5.29,5.29,0,0,1,1,3Z" transform="translate(-29 -19.03)" fill="#9a9e9e"/><path d="M572.87,176.82h-3.41l7.66-21.28h3.71l7.66,21.28h-3.41l-6-17.42h-.17Zm.57-8.33H584.5v2.7H573.44Zm2.41-15.06-2.09-.07a4,4,0,0,1,.93-2.75,3,3,0,0,1,2.3-1,2.6,2.6,0,0,1,1.12.22,5.08,5.08,0,0,1,.89.49,6.65,6.65,0,0,0,.85.49,2,2,0,0,0,.94.22,1.22,1.22,0,0,0,1-.47,1.64,1.64,0,0,0,.38-1.12l2.06.13a3.88,3.88,0,0,1-.94,2.73,3,3,0,0,1-2.29,1,3.16,3.16,0,0,1-1.23-.21,4.71,4.71,0,0,1-.86-.49,7.11,7.11,0,0,0-.77-.49,2,2,0,0,0-1-.21,1.17,1.17,0,0,0-.94.45A1.73,1.73,0,0,0,575.85,153.43Z" transform="translate(-29 -19.03)" fill="#9a9e9e"/><path d="M614.9,166.18a12.8,12.8,0,0,1-1.24,5.86,9.12,9.12,0,0,1-3.42,3.76,9.85,9.85,0,0,1-9.85,0A9.13,9.13,0,0,1,597,172a14.34,14.34,0,0,1,0-11.71,9.16,9.16,0,0,1,3.41-3.76,9.91,9.91,0,0,1,9.85,0,9.12,9.12,0,0,1,3.42,3.76A12.83,12.83,0,0,1,614.9,166.18Zm-3.18,0a10.25,10.25,0,0,0-.83-4.38,6.19,6.19,0,0,0-2.29-2.7,6.31,6.31,0,0,0-6.56,0,6.11,6.11,0,0,0-2.28,2.7,11.84,11.84,0,0,0,0,8.76,6.11,6.11,0,0,0,2.28,2.7,6.31,6.31,0,0,0,6.56,0,6.19,6.19,0,0,0,2.29-2.7A10.25,10.25,0,0,0,611.72,166.18Z" transform="translate(-29 -19.03)" fill="#9a9e9e"/><path d="M638.36,176.82V155.54H651.7v2.76H641.57v6.49H651v2.75h-9.43v6.52h10.26v2.76Z" transform="translate(-29 -19.03)" fill="#9a9e9e"/><path d="M677.33,155.54l5.92,17.34h.24l5.92-17.34h3.47l-7.65,21.28h-3.72l-7.66-21.28Z" transform="translate(-29 -19.03)" fill="#9a9e9e"/><path d="M719.23,166.18A12.8,12.8,0,0,1,718,172a9,9,0,0,1-8.34,5.08,9.28,9.28,0,0,1-4.93-1.32A9.15,9.15,0,0,1,701.3,172a14.44,14.44,0,0,1,0-11.71,9.18,9.18,0,0,1,3.42-3.76,9.91,9.91,0,0,1,9.85,0,9.18,9.18,0,0,1,3.42,3.76A12.83,12.83,0,0,1,719.23,166.18Zm-3.18,0a10.4,10.4,0,0,0-.83-4.38,6.19,6.19,0,0,0-2.29-2.7,6.31,6.31,0,0,0-6.56,0,6.11,6.11,0,0,0-2.28,2.7,11.84,11.84,0,0,0,0,8.76,6.11,6.11,0,0,0,2.28,2.7,6.31,6.31,0,0,0,6.56,0,6.19,6.19,0,0,0,2.29-2.7A10.4,10.4,0,0,0,716.05,166.18Z" transform="translate(-29 -19.03)" fill="#9a9e9e"/><path d="M746.76,162.46h-3.25a4.91,4.91,0,0,0-.69-1.83,5.16,5.16,0,0,0-1.25-1.34,5.34,5.34,0,0,0-1.65-.83,6.37,6.37,0,0,0-1.92-.28,6,6,0,0,0-3.29.92,6.25,6.25,0,0,0-2.29,2.72,10.18,10.18,0,0,0-.84,4.36,10.29,10.29,0,0,0,.84,4.39,6.19,6.19,0,0,0,2.29,2.7,6,6,0,0,0,3.28.91,6.63,6.63,0,0,0,1.91-.27,5.31,5.31,0,0,0,1.65-.82,5.07,5.07,0,0,0,1.25-1.32,4.85,4.85,0,0,0,.71-1.8h3.25a8.79,8.79,0,0,1-1,2.89,7.66,7.66,0,0,1-1.9,2.26,8.54,8.54,0,0,1-2.64,1.48,9.93,9.93,0,0,1-3.25.52A9.24,9.24,0,0,1,733,175.8a9.13,9.13,0,0,1-3.41-3.77,14.39,14.39,0,0,1,0-11.71,9.16,9.16,0,0,1,3.41-3.76,9.32,9.32,0,0,1,4.91-1.31,10.17,10.17,0,0,1,3.17.48,8.39,8.39,0,0,1,2.64,1.41,8,8,0,0,1,2,2.27A8.87,8.87,0,0,1,746.76,162.46Z" transform="translate(-29 -19.03)" fill="#9a9e9e"/><path d="M756.46,176.82V155.54H769.8v2.76H759.67v6.49h9.43v2.75h-9.43v6.52h10.26v2.76Zm8.8-23.19-2.13-2.79L761,153.63h-2.81v-.16l3.65-4.41h2.59l3.66,4.41v.16Z" transform="translate(-29 -19.03)" fill="#9a9e9e"/><path d="M781.92,177a2.07,2.07,0,0,1-1.47-3.54,2.09,2.09,0,0,1,2.93,0,2,2,0,0,1,.62,1.46,2.13,2.13,0,0,1-.3,1.05,2.24,2.24,0,0,1-.75.75A1.92,1.92,0,0,1,781.92,177Zm1.71-21.48-.27,15.16h-2.88l-.27-15.16Z" transform="translate(-29 -19.03)" fill="#9a9e9e"/></svg>