<svg xmlns="http://www.w3.org/2000/svg" xmlns:xlink="http://www.w3.org/1999/xlink" viewBox="0 0 755.35 118"><defs><style>.cls-1{fill:#0a0a0a;}.cls-2{fill:url(#Gradiente_sem_nome_35);}.cls-3{fill:url(#Nova_amostra_de_gradiente_2);}.cls-4{fill:url(#Nova_amostra_de_gradiente_1);}.cls-5{fill:url(#Nova_amostra_de_gradiente_3);}</style><linearGradient id="Gradiente_sem_nome_35" x1="167.88" y1="-0.56" x2="130.57" y2="61" gradientUnits="userSpaceOnUse"><stop offset="0" stop-color="#118ab2"/><stop offset="0.21" stop-color="#2e9ec3"/><stop offset="0.56" stop-color="#58badb"/><stop offset="0.84" stop-color="#72cbe9"/><stop offset="1" stop-color="#7cd2ef"/></linearGradient><linearGradient id="Nova_amostra_de_gradiente_2" x1="91.1" y1="33.41" x2="119.79" y2="78.28" gradientUnits="userSpaceOnUse"><stop offset="0" stop-color="#b6325f"/><stop offset="0.19" stop-color="#be3c62"/><stop offset="0.52" stop-color="#d4566b"/><stop offset="0.93" stop-color="#f88079"/><stop offset="1" stop-color="#ff887c"/></linearGradient><linearGradient id="Nova_amostra_de_gradiente_1" x1="119.78" y1="71.43" x2="88.48" y2="123.08" gradientUnits="userSpaceOnUse"><stop offset="0" stop-color="#ffd166"/><stop offset="0.1" stop-color="#f9c95a"/><stop offset="0.5" stop-color="#e5af30"/><stop offset="0.81" stop-color="#d99e16"/><stop offset="1" stop-color="#d4980c"/></linearGradient><linearGradient id="Nova_amostra_de_gradiente_3" x1="128.55" y1="85.88" x2="153.68" y2="125.19" gradientUnits="userSpaceOnUse"><stop offset="0" stop-color="#06d6a0"/><stop offset="0.31" stop-color="#0acc9a"/><stop offset="0.82" stop-color="#15b28a"/><stop offset="1" stop-color="#19a883"/></linearGradient></defs><g id="Camada_2" data-name="Camada 2"><g id="Camada_1-2" data-name="Camada 1"><g id="Logo"><g id="tensiona"><path class="cls-1" d="M181.42,67.93H170.74V51h11.72L185,31.89h18.68V51h17.21V67.93H203.66v32.18c0,6.37,3.86,10.67,10.09,10.67a31.7,31.7,0,0,0,7.86-1.18v17.94a53.59,53.59,0,0,1-15.28,2.38c-15.12,0-24.91-11.42-24.91-27.59Z" transform="translate(-6.23 -12.34)"/><path class="cls-1" d="M267,48.05c24.32,0,40.93,16.61,40.93,40.64a47.46,47.46,0,0,1-.3,6.67l-59.47-.15c1.93,10.68,9.2,17.65,19.28,17.65,8.31,0,15.28-4.74,17.65-11.42l20,2.82c-3.71,14.83-19.72,25.66-38.26,25.66-24.47,0-41.67-17.06-41.67-41.53C225.17,64.66,242.52,48.05,267,48.05Zm18.39,33.82c-1.34-9.64-8.75-16.76-18.84-16.76-9.79,0-16.61,6.67-18.54,16.76Z" transform="translate(-6.23 -12.34)"/><path class="cls-1" d="M336.54,51V61.25a28.79,28.79,0,0,1,24.18-13.2c17,0,28.62,13.2,28.62,31.44V127H367.09V83.35c0-9.2-5.34-15.72-14.09-15.72s-15.86,7-15.86,16.61V127H314.89V51Z" transform="translate(-6.23 -12.34)"/><path class="cls-1" d="M430.86,130.21c-20.46,0-35.29-12-35.14-28.62h18.83c0,7.56,7,12.9,16.61,12.9,8.16,0,14.09-3.85,14.09-8.9,0-6.37-8.6-8.15-17.8-9-16.9-2.08-31-4.75-31-23.29,0-14.83,14.09-25.5,32.62-25.5,20.32,0,35,11,35,26.25H444.51c0-6.23-6.68-10.53-15.57-10.53-6.83,0-12.31,3.56-12.46,8.6s6.67,6.52,15.27,7.86c15.43,2.07,34.85,5.19,34.85,23C466.6,118.79,452.07,130.21,430.86,130.21Z" transform="translate(-6.23 -12.34)"/><path class="cls-1" d="M473.43,28.33c0-7.27,5.33-12.46,12.9-12.46s12.9,5.19,12.9,12.46-5.34,12.61-12.9,12.61S473.43,35.74,473.43,28.33Zm24,22.69V127H475.21V51Z" transform="translate(-6.23 -12.34)"/><path class="cls-1" d="M590.43,89c0,24.18-17.2,40.94-42.26,40.94S506.05,113.16,506.05,89s17.2-40.93,42.12-40.93S590.43,64.66,590.43,89ZM568,89c0-12.45-8.16-21.35-19.87-21.35S528.44,76.53,528.44,89s8.16,21.36,19.73,21.36S568,101.44,568,89Z" transform="translate(-6.23 -12.34)"/><path class="cls-1" d="M618.91,51V61.25a28.77,28.77,0,0,1,24.17-13.2c17,0,28.62,13.2,28.62,31.44V127H649.46V83.35c0-9.2-5.34-15.72-14.09-15.72s-15.87,7-15.87,16.61V127H597.26V51Z" transform="translate(-6.23 -12.34)"/><path class="cls-1" d="M739.33,51h22.24V127H739.33V116.42a30.8,30.8,0,0,1-25.8,13.5c-21.36,0-36.34-16.91-36.34-40.94s15-40.93,36.34-40.93a30.8,30.8,0,0,1,25.8,13.5Zm-.15,38c0-12.3-8.3-21.35-19.87-21.35S699.44,76.68,699.44,89s8.3,21.36,19.87,21.36S739.18,101.29,739.18,89Z" transform="translate(-6.23 -12.34)"/></g><g id="tensiona-2" data-name="tensiona"><path class="cls-1" d="M48.05,48.05C72.37,48.05,89,64.66,89,88.69a47.46,47.46,0,0,1-.3,6.67l-59.47-.15c1.93,10.68,9.2,17.65,19.28,17.65,8.31,0,15.28-4.74,17.65-11.42l20,2.82c-3.7,14.83-19.72,25.66-38.26,25.66-24.47,0-41.67-17.06-41.67-41.53C6.23,64.66,23.58,48.05,48.05,48.05ZM66.44,81.87C65.1,72.23,57.69,65.11,47.6,65.11c-9.78,0-16.6,6.67-18.53,16.76Z" transform="translate(-6.23 -12.34)"/></g><g id="X"><polygon class="cls-2" points="123.09 49.34 137.03 69.73 182.09 0 153.12 0 123.09 49.34"/><polygon class="cls-3" points="106.57 35.4 77.38 35.4 105.56 75.09 132.74 75.09 106.57 35.4"/><polygon class="cls-4" points="76.38 118 104.56 118 132.74 75.09 105.56 75.09 76.38 118"/><polygon class="cls-5" points="164.92 118 133.81 118 122.38 101 137.03 80.45 164.92 118"/></g></g></g></g></svg>